<?xml version="1.0" encoding="utf-8" standalone="no"?>
<!DOCTYPE svg PUBLIC "-//W3C//DTD SVG 1.1//EN"
  "http://www.w3.org/Graphics/SVG/1.1/DTD/svg11.dtd">
<svg height="288pt" version="1.1" viewBox="0 0 432 288" width="432pt" xmlns="http://www.w3.org/2000/svg" xmlns:xlink="http://www.w3.org/1999/xlink">
 <metadata>
  <rdf:RDF xmlns:cc="http://creativecommons.org/ns#" xmlns:dc="http://purl.org/dc/elements/1.1/" xmlns:rdf="http://www.w3.org/1999/02/22-rdf-syntax-ns#">
   <cc:Work>
    <dc:type rdf:resource="http://purl.org/dc/dcmitype/StillImage"/>
    <dc:date>2021-10-09T20:57:03.105689</dc:date>
    <dc:format>image/svg+xml</dc:format>
    <dc:creator>
     <cc:Agent>
      <dc:title>Matplotlib v3.4.3, https://matplotlib.org/</dc:title>
     </cc:Agent>
    </dc:creator>
   </cc:Work>
  </rdf:RDF>
 </metadata>
 <defs>
  <style type="text/css">*{stroke-linecap:butt;stroke-linejoin:round;}</style>
 </defs>
 <g id="figure_1">
  <g id="patch_1">
   <path d="M 0 288 
L 432 288 
L 432 0 
L 0 0 
z
" style="fill:none;"/>
  </g>
  <g id="axes_1">
   <g id="patch_2">
    <path d="M 54 252 
L 388.8 252 
L 388.8 34.56 
L 54 34.56 
z
" style="fill:#ffffff;"/>
   </g>
   <g id="matplotlib.axis_1">
    <g id="text_1">
     <!-- m(training set size) -->
     <g transform="translate(171.58455 264.966376)scale(0.12 -0.12)">
      <defs>
       <path d="M 4326 1954 
C 4326 2276 4269 2816 3507 2816 
C 3072 2816 2771 2520 2656 2173 
L 2650 2173 
C 2573 2700 2195 2816 1837 2816 
C 1331 2816 1069 2424 973 2166 
L 966 2166 
L 966 2816 
L 211 2745 
L 211 2578 
C 589 2578 646 2540 646 2231 
L 646 443 
C 646 198 621 166 211 166 
L 211 0 
C 365 12 646 12 813 12 
C 979 12 1267 12 1421 0 
L 1421 166 
C 1011 166 986 192 986 443 
L 986 1678 
C 986 2269 1344 2713 1792 2713 
C 2266 2713 2317 2289 2317 1980 
L 2317 443 
C 2317 198 2291 166 1882 166 
L 1882 0 
C 2035 12 2317 12 2483 12 
C 2650 12 2938 12 3091 0 
L 3091 166 
C 2682 166 2656 192 2656 443 
L 2656 1678 
C 2656 2269 3014 2713 3462 2713 
C 3936 2713 3987 2289 3987 1980 
L 3987 443 
C 3987 198 3962 166 3552 166 
L 3552 0 
C 3706 12 3987 12 4154 12 
C 4320 12 4608 12 4762 0 
L 4762 166 
C 4352 166 4326 192 4326 443 
L 4326 1954 
z
" id="CMR17-6d" transform="scale(0.015625)"/>
       <path d="M 1958 -1562 
C 1958 -1556 1958 -1543 1939 -1524 
C 1645 -1223 858 -403 858 1596 
C 858 3595 1632 4408 1946 4729 
C 1946 4735 1958 4748 1958 4767 
C 1958 4787 1939 4800 1914 4800 
C 1843 4800 1299 4325 986 3620 
C 666 2909 576 2218 576 1603 
C 576 1141 621 360 1005 -467 
C 1312 -1133 1837 -1600 1914 -1600 
C 1946 -1600 1958 -1588 1958 -1562 
z
" id="CMR17-28" transform="scale(0.015625)"/>
       <path d="M 966 2585 
L 1862 2585 
L 1862 2752 
L 966 2752 
L 966 3968 
L 851 3968 
C 838 3292 614 2700 70 2687 
L 70 2585 
L 627 2585 
L 627 778 
C 627 655 627 -64 1370 -64 
C 1747 -64 1965 308 1965 784 
L 1965 1151 
L 1850 1151 
L 1850 790 
C 1850 347 1677 51 1408 51 
C 1222 51 966 179 966 765 
L 966 2585 
z
" id="CMR17-74" transform="scale(0.015625)"/>
       <path d="M 960 1517 
C 960 2134 1222 2713 1702 2713 
C 1747 2713 1792 2707 1837 2687 
C 1837 2687 1696 2642 1696 2475 
C 1696 2321 1818 2257 1914 2257 
C 1990 2257 2131 2302 2131 2482 
C 2131 2687 1926 2816 1709 2816 
C 1222 2816 1011 2340 947 2115 
L 941 2115 
L 941 2816 
L 198 2745 
L 198 2578 
C 576 2578 634 2540 634 2231 
L 634 443 
C 634 198 608 166 198 166 
L 198 0 
C 352 12 646 12 813 12 
C 998 12 1325 12 1498 0 
L 1498 166 
C 1037 166 960 166 960 455 
L 960 1517 
z
" id="CMR17-72" transform="scale(0.015625)"/>
       <path d="M 2304 1656 
C 2304 2048 2304 2275 2035 2534 
C 1798 2751 1523 2816 1306 2816 
C 800 2816 435 2408 435 1977 
C 435 1740 627 1728 666 1728 
C 749 1728 896 1779 896 1958 
C 896 2118 774 2188 666 2188 
C 640 2188 608 2182 589 2176 
C 723 2594 1069 2713 1293 2713 
C 1613 2713 1965 2421 1965 1875 
L 1965 1632 
C 1587 1619 1133 1568 774 1373 
C 371 1147 256 822 256 576 
C 256 77 832 -64 1171 -64 
C 1523 -64 1850 135 1990 505 
C 2003 219 2182 -39 2464 -39 
C 2598 -39 2938 51 2938 563 
L 2938 926 
L 2822 926 
L 2822 557 
C 2822 161 2650 109 2566 109 
C 2304 109 2304 446 2304 732 
L 2304 1656 
z
M 1965 887 
C 1965 323 1568 38 1216 38 
C 896 38 646 278 646 576 
C 646 771 730 1114 1101 1322 
C 1408 1497 1760 1523 1965 1536 
L 1965 887 
z
" id="CMR17-61" transform="scale(0.015625)"/>
       <path d="M 992 3961 
C 992 4102 877 4224 730 4224 
C 589 4224 467 4108 467 3961 
C 467 3820 582 3699 730 3699 
C 870 3699 992 3814 992 3961 
z
M 243 2745 
L 243 2579 
C 602 2579 653 2540 653 2231 
L 653 443 
C 653 198 627 166 218 166 
L 218 0 
C 371 12 646 12 806 12 
C 960 12 1222 12 1370 0 
L 1370 166 
C 992 166 979 205 979 436 
L 979 2816 
L 243 2745 
z
" id="CMR17-69" transform="scale(0.015625)"/>
       <path d="M 2656 1954 
C 2656 2282 2592 2816 1837 2816 
C 1331 2816 1069 2424 973 2166 
L 966 2166 
L 966 2816 
L 211 2745 
L 211 2578 
C 589 2578 646 2540 646 2231 
L 646 443 
C 646 198 621 166 211 166 
L 211 0 
C 365 12 646 12 813 12 
C 979 12 1267 12 1421 0 
L 1421 166 
C 1011 166 986 192 986 443 
L 986 1678 
C 986 2269 1344 2713 1792 2713 
C 2266 2713 2317 2289 2317 1980 
L 2317 443 
C 2317 198 2291 166 1882 166 
L 1882 0 
C 2035 12 2317 12 2483 12 
C 2650 12 2938 12 3091 0 
L 3091 166 
C 2682 166 2656 192 2656 443 
L 2656 1954 
z
" id="CMR17-6e" transform="scale(0.015625)"/>
       <path d="M 710 1165 
C 832 1068 1043 960 1299 960 
C 1805 960 2240 1359 2240 1895 
C 2240 2063 2189 2321 1997 2521 
C 2176 2713 2438 2777 2586 2777 
C 2611 2777 2650 2777 2682 2758 
C 2656 2751 2598 2726 2598 2623 
C 2598 2540 2656 2483 2739 2483 
C 2835 2483 2886 2547 2886 2630 
C 2886 2751 2790 2880 2586 2880 
C 2330 2880 2106 2758 1926 2591 
C 1734 2764 1504 2828 1299 2828 
C 794 2828 358 2431 358 1895 
C 358 1527 570 1294 634 1230 
C 442 1004 442 742 442 710 
C 442 544 506 300 723 166 
C 390 82 128 -184 128 -517 
C 128 -996 736 -1344 1466 -1344 
C 2170 -1344 2803 -1009 2803 -510 
C 2803 384 1856 384 1363 384 
C 1216 384 954 384 922 390 
C 723 422 589 601 589 825 
C 589 883 589 1024 710 1165 
z
M 1299 1068 
C 736 1068 736 1766 736 1895 
C 736 2024 736 2719 1299 2719 
C 1862 2719 1862 2024 1862 1895 
C 1862 1766 1862 1068 1299 1068 
z
M 1466 -1236 
C 826 -1236 384 -883 384 -517 
C 384 -311 493 -118 634 -11 
C 794 102 858 102 1293 102 
C 1818 102 2547 102 2547 -517 
C 2547 -883 2106 -1236 1466 -1236 
z
" id="CMR17-67" transform="scale(0.015625)"/>
       <path d="M 1978 2688 
C 1978 2803 1971 2809 1933 2809 
C 1907 2809 1901 2803 1824 2707 
C 1805 2681 1747 2617 1728 2592 
C 1523 2809 1235 2816 1126 2816 
C 416 2816 160 2444 160 2073 
C 160 1497 813 1363 998 1324 
C 1402 1241 1542 1216 1677 1100 
C 1760 1024 1901 883 1901 652 
C 1901 384 1747 38 1158 38 
C 602 38 403 460 288 1024 
C 269 1113 269 1120 218 1120 
C 166 1120 160 1113 160 985 
L 160 64 
C 160 -52 166 -58 205 -58 
C 237 -58 243 -52 275 0 
C 314 57 410 211 448 275 
C 576 102 800 -64 1158 -64 
C 1792 -64 2131 281 2131 780 
C 2131 1107 1958 1280 1875 1356 
C 1683 1555 1459 1600 1190 1651 
C 838 1728 390 1817 390 2208 
C 390 2374 480 2726 1126 2726 
C 1811 2726 1850 2086 1862 1881 
C 1869 1849 1901 1843 1920 1843 
C 1978 1843 1978 1862 1978 1971 
L 1978 2688 
z
" id="CMR17-73" transform="scale(0.015625)"/>
       <path d="M 2438 1503 
C 2464 1529 2464 1542 2464 1606 
C 2464 2251 2118 2816 1389 2816 
C 710 2816 173 2175 173 1394 
C 173 554 781 -64 1459 -64 
C 2176 -64 2458 619 2458 755 
C 2458 800 2419 800 2406 800 
C 2362 800 2355 787 2330 709 
C 2189 270 1837 51 1504 51 
C 1229 51 954 206 781 490 
C 582 819 582 1200 582 1503 
L 2438 1503 
z
M 589 1600 
C 634 2511 1126 2713 1382 2713 
C 1818 2713 2112 2308 2118 1600 
L 589 1600 
z
" id="CMR17-65" transform="scale(0.015625)"/>
       <path d="M 2310 2604 
C 2362 2668 2362 2681 2362 2694 
C 2362 2752 2336 2752 2221 2752 
L 275 2752 
L 211 1760 
L 326 1760 
C 371 2380 442 2649 1178 2649 
L 1958 2649 
L 128 96 
C 128 6 134 0 269 0 
L 2291 0 
L 2381 1152 
L 2266 1152 
C 2214 441 2131 115 1350 115 
L 531 115 
L 2310 2604 
z
" id="CMR17-7a" transform="scale(0.015625)"/>
       <path d="M 1683 1596 
C 1683 2057 1638 2839 1254 3665 
C 947 4332 422 4800 346 4800 
C 326 4800 301 4793 301 4761 
C 301 4748 307 4742 314 4729 
C 621 4408 1402 3595 1402 1603 
C 1402 -396 627 -1210 314 -1530 
C 307 -1543 301 -1549 301 -1562 
C 301 -1594 326 -1600 346 -1600 
C 416 -1600 960 -1127 1274 -422 
C 1594 289 1683 981 1683 1596 
z
" id="CMR17-29" transform="scale(0.015625)"/>
      </defs>
      <use transform="scale(0.996264)" xlink:href="#CMR17-6d"/>
      <use transform="translate(76.91959 0)scale(0.996264)" xlink:href="#CMR17-28"/>
      <use transform="translate(112.200358 0)scale(0.996264)" xlink:href="#CMR17-74"/>
      <use transform="translate(147.481125 0)scale(0.996264)" xlink:href="#CMR17-72"/>
      <use transform="translate(182.761893 0)scale(0.996264)" xlink:href="#CMR17-61"/>
      <use transform="translate(228.45237 0)scale(0.996264)" xlink:href="#CMR17-69"/>
      <use transform="translate(253.323429 0)scale(0.996264)" xlink:href="#CMR17-6e"/>
      <use transform="translate(304.218799 0)scale(0.996264)" xlink:href="#CMR17-69"/>
      <use transform="translate(329.089857 0)scale(0.996264)" xlink:href="#CMR17-6e"/>
      <use transform="translate(379.985227 0)scale(0.996264)" xlink:href="#CMR17-67"/>
      <use transform="translate(455.75167 0)scale(0.996264)" xlink:href="#CMR17-73"/>
      <use transform="translate(491.553008 0)scale(0.996264)" xlink:href="#CMR17-65"/>
      <use transform="translate(532.038668 0)scale(0.996264)" xlink:href="#CMR17-74"/>
      <use transform="translate(597.395403 0)scale(0.996264)" xlink:href="#CMR17-73"/>
      <use transform="translate(633.19674 0)scale(0.996264)" xlink:href="#CMR17-69"/>
      <use transform="translate(658.067799 0)scale(0.996264)" xlink:href="#CMR17-7a"/>
      <use transform="translate(698.553459 0)scale(0.996264)" xlink:href="#CMR17-65"/>
      <use transform="translate(739.03912 0)scale(0.996264)" xlink:href="#CMR17-29"/>
     </g>
    </g>
   </g>
   <g id="matplotlib.axis_2">
    <g id="text_2">
     <!-- error -->
     <g transform="translate(47.675404 155.636313)rotate(-90)scale(0.12 -0.12)">
      <defs>
       <path d="M 2758 1356 
C 2758 2176 2163 2816 1466 2816 
C 768 2816 173 2176 173 1356 
C 173 550 768 -64 1466 -64 
C 2163 -64 2758 550 2758 1356 
z
M 1466 51 
C 1165 51 909 230 762 480 
C 602 768 582 1126 582 1408 
C 582 1676 595 2009 762 2297 
C 890 2508 1139 2713 1466 2713 
C 1754 2713 1997 2553 2150 2329 
C 2349 2028 2349 1606 2349 1408 
C 2349 1158 2336 774 2163 467 
C 1984 172 1709 51 1466 51 
z
" id="CMR17-6f" transform="scale(0.015625)"/>
      </defs>
      <use transform="scale(0.996264)" xlink:href="#CMR17-65"/>
      <use transform="translate(40.48566 0)scale(0.996264)" xlink:href="#CMR17-72"/>
      <use transform="translate(75.766428 0)scale(0.996264)" xlink:href="#CMR17-72"/>
      <use transform="translate(111.047196 0)scale(0.996264)" xlink:href="#CMR17-6f"/>
      <use transform="translate(156.737673 0)scale(0.996264)" xlink:href="#CMR17-72"/>
     </g>
    </g>
   </g>
   <g id="line2d_1">
    <path clip-path="url(#p39097fc438)" d="M 69.218182 242.116364 
L 72.261818 237.458152 
L 75.305455 232.823135 
L 78.349091 228.234047 
L 81.392727 223.712723 
L 84.436364 219.279694 
L 87.48 214.953836 
L 90.523636 210.752085 
L 93.567273 206.689219 
L 96.610909 202.777719 
L 99.654545 199.027704 
L 102.698182 195.446932 
L 105.741818 192.040867 
L 108.785455 188.812797 
L 111.829091 185.763993 
L 114.872727 182.893899 
L 117.916364 180.200345 
L 120.96 177.679766 
L 124.003636 175.327423 
L 127.047273 173.137621 
L 130.090909 171.103914 
L 133.134545 169.219291 
L 136.178182 167.476352 
L 139.221818 165.867459 
L 142.265455 164.384864 
L 145.309091 163.020826 
L 148.352727 161.7677 
L 151.396364 160.618016 
L 154.44 159.564536 
L 157.483636 158.600301 
L 160.527273 157.718664 
L 163.570909 156.913312 
L 166.614545 156.17828 
L 169.658182 155.507958 
L 172.701818 154.897089 
L 175.745455 154.340765 
L 178.789091 153.834417 
L 181.832727 153.373807 
L 184.876364 152.955012 
L 187.92 152.574405 
L 190.963636 152.228646 
L 194.007273 151.914662 
L 197.050909 151.629627 
L 200.094545 151.370953 
L 203.138182 151.136267 
L 206.181818 150.923397 
L 209.225455 150.73036 
L 212.269091 150.555344 
L 215.312727 150.396698 
L 218.356364 150.252913 
L 221.4 150.122619 
L 224.443636 150.004565 
L 227.487273 149.897616 
L 230.530909 149.800739 
L 233.574545 149.712993 
L 236.618182 149.633526 
L 239.661818 149.561562 
L 242.705455 149.496398 
L 245.749091 149.437397 
L 248.792727 149.383977 
L 251.836364 149.335615 
L 254.88 149.291833 
L 257.923636 149.2522 
L 260.967273 149.216324 
L 264.010909 149.183851 
L 267.054545 149.154457 
L 270.098182 149.127853 
L 273.141818 149.103774 
L 276.185455 149.081981 
L 279.229091 149.062258 
L 282.272727 149.044407 
L 285.316364 149.028253 
L 288.36 149.013633 
L 291.403636 149.000403 
L 294.447273 148.98843 
L 297.490909 148.977595 
L 300.534545 148.967791 
L 303.578182 148.958918 
L 306.621818 148.950889 
L 309.665455 148.943623 
L 312.709091 148.937048 
L 315.752727 148.931099 
L 318.796364 148.925716 
L 321.84 148.920844 
L 324.883636 148.916436 
L 327.927273 148.912447 
L 330.970909 148.908838 
L 334.014545 148.905572 
L 337.058182 148.902616 
L 340.101818 148.899942 
L 343.145455 148.897522 
L 346.189091 148.895333 
L 349.232727 148.893351 
L 352.276364 148.891559 
L 355.32 148.889937 
L 358.363636 148.888469 
L 361.407273 148.887141 
L 364.450909 148.885939 
L 367.494545 148.884851 
L 370.538182 148.883867 
L 373.581818 148.882977 
" style="fill:none;stroke:#1f77b4;stroke-linecap:square;stroke-width:1.5;"/>
   </g>
   <g id="line2d_2">
    <path clip-path="url(#p39097fc438)" d="M 69.218182 44.443636 
L 72.261818 49.101848 
L 75.305455 53.736865 
L 78.349091 58.325953 
L 81.392727 62.847277 
L 84.436364 67.280306 
L 87.48 71.606164 
L 90.523636 75.807915 
L 93.567273 79.870781 
L 96.610909 83.782281 
L 99.654545 87.532296 
L 102.698182 91.113068 
L 105.741818 94.519133 
L 108.785455 97.747203 
L 111.829091 100.796007 
L 114.872727 103.666101 
L 117.916364 106.359655 
L 120.96 108.880234 
L 124.003636 111.232577 
L 127.047273 113.422379 
L 130.090909 115.456086 
L 133.134545 117.340709 
L 136.178182 119.083648 
L 139.221818 120.692541 
L 142.265455 122.175136 
L 145.309091 123.539174 
L 148.352727 124.7923 
L 151.396364 125.941984 
L 154.44 126.995464 
L 157.483636 127.959699 
L 160.527273 128.841336 
L 163.570909 129.646688 
L 166.614545 130.38172 
L 169.658182 131.052042 
L 172.701818 131.662911 
L 175.745455 132.219235 
L 178.789091 132.725583 
L 181.832727 133.186193 
L 184.876364 133.604988 
L 187.92 133.985595 
L 190.963636 134.331354 
L 194.007273 134.645338 
L 197.050909 134.930373 
L 200.094545 135.189047 
L 203.138182 135.423733 
L 206.181818 135.636603 
L 209.225455 135.82964 
L 212.269091 136.004656 
L 215.312727 136.163302 
L 218.356364 136.307087 
L 221.4 136.437381 
L 224.443636 136.555435 
L 227.487273 136.662384 
L 230.530909 136.759261 
L 233.574545 136.847007 
L 236.618182 136.926474 
L 239.661818 136.998438 
L 242.705455 137.063602 
L 245.749091 137.122603 
L 248.792727 137.176023 
L 251.836364 137.224385 
L 254.88 137.268167 
L 257.923636 137.3078 
L 260.967273 137.343676 
L 264.010909 137.376149 
L 267.054545 137.405543 
L 270.098182 137.432147 
L 273.141818 137.456226 
L 276.185455 137.478019 
L 279.229091 137.497742 
L 282.272727 137.515593 
L 285.316364 137.531747 
L 288.36 137.546367 
L 291.403636 137.559597 
L 294.447273 137.57157 
L 297.490909 137.582405 
L 300.534545 137.592209 
L 303.578182 137.601082 
L 306.621818 137.609111 
L 309.665455 137.616377 
L 312.709091 137.622952 
L 315.752727 137.628901 
L 318.796364 137.634284 
L 321.84 137.639156 
L 324.883636 137.643564 
L 327.927273 137.647553 
L 330.970909 137.651162 
L 334.014545 137.654428 
L 337.058182 137.657384 
L 340.101818 137.660058 
L 343.145455 137.662478 
L 346.189091 137.664667 
L 349.232727 137.666649 
L 352.276364 137.668441 
L 355.32 137.670063 
L 358.363636 137.671531 
L 361.407273 137.672859 
L 364.450909 137.674061 
L 367.494545 137.675149 
L 370.538182 137.676133 
L 373.581818 137.677023 
" style="fill:none;stroke:#ff7f0e;stroke-dasharray:5.55,2.4;stroke-dashoffset:0;stroke-width:1.5;"/>
   </g>
   <g id="line2d_3">
    <path clip-path="url(#p39097fc438)" d="M 69.218182 143.28 
L 72.261818 143.28 
L 75.305455 143.28 
L 78.349091 143.28 
L 81.392727 143.28 
L 84.436364 143.28 
L 87.48 143.28 
L 90.523636 143.28 
L 93.567273 143.28 
L 96.610909 143.28 
L 99.654545 143.28 
L 102.698182 143.28 
L 105.741818 143.28 
L 108.785455 143.28 
L 111.829091 143.28 
L 114.872727 143.28 
L 117.916364 143.28 
L 120.96 143.28 
L 124.003636 143.28 
L 127.047273 143.28 
L 130.090909 143.28 
L 133.134545 143.28 
L 136.178182 143.28 
L 139.221818 143.28 
L 142.265455 143.28 
L 145.309091 143.28 
L 148.352727 143.28 
L 151.396364 143.28 
L 154.44 143.28 
L 157.483636 143.28 
L 160.527273 143.28 
L 163.570909 143.28 
L 166.614545 143.28 
L 169.658182 143.28 
L 172.701818 143.28 
L 175.745455 143.28 
L 178.789091 143.28 
L 181.832727 143.28 
L 184.876364 143.28 
L 187.92 143.28 
L 190.963636 143.28 
L 194.007273 143.28 
L 197.050909 143.28 
L 200.094545 143.28 
L 203.138182 143.28 
L 206.181818 143.28 
L 209.225455 143.28 
L 212.269091 143.28 
L 215.312727 143.28 
L 218.356364 143.28 
L 221.4 143.28 
L 224.443636 143.28 
L 227.487273 143.28 
L 230.530909 143.28 
L 233.574545 143.28 
L 236.618182 143.28 
L 239.661818 143.28 
L 242.705455 143.28 
L 245.749091 143.28 
L 248.792727 143.28 
L 251.836364 143.28 
L 254.88 143.28 
L 257.923636 143.28 
L 260.967273 143.28 
L 264.010909 143.28 
L 267.054545 143.28 
L 270.098182 143.28 
L 273.141818 143.28 
L 276.185455 143.28 
L 279.229091 143.28 
L 282.272727 143.28 
L 285.316364 143.28 
L 288.36 143.28 
L 291.403636 143.28 
L 294.447273 143.28 
L 297.490909 143.28 
L 300.534545 143.28 
L 303.578182 143.28 
L 306.621818 143.28 
L 309.665455 143.28 
L 312.709091 143.28 
L 315.752727 143.28 
L 318.796364 143.28 
L 321.84 143.28 
L 324.883636 143.28 
L 327.927273 143.28 
L 330.970909 143.28 
L 334.014545 143.28 
L 337.058182 143.28 
L 340.101818 143.28 
L 343.145455 143.28 
L 346.189091 143.28 
L 349.232727 143.28 
L 352.276364 143.28 
L 355.32 143.28 
L 358.363636 143.28 
L 361.407273 143.28 
L 364.450909 143.28 
L 367.494545 143.28 
L 370.538182 143.28 
L 373.581818 143.28 
" style="fill:none;stroke:#2ca02c;stroke-dasharray:9.6,2.4,1.5,2.4;stroke-dashoffset:0;stroke-width:1.5;"/>
   </g>
   <g id="patch_3">
    <path d="M 54 252 
L 54 34.56 
" style="fill:none;stroke:#000000;stroke-linecap:square;stroke-linejoin:miter;stroke-width:0.7;"/>
   </g>
   <g id="patch_4">
    <path d="M 388.8 252 
L 388.8 34.56 
" style="fill:none;stroke:#000000;stroke-linecap:square;stroke-linejoin:miter;stroke-width:0.7;"/>
   </g>
   <g id="patch_5">
    <path d="M 54 252 
L 388.8 252 
" style="fill:none;stroke:#000000;stroke-linecap:square;stroke-linejoin:miter;stroke-width:0.7;"/>
   </g>
   <g id="patch_6">
    <path d="M 54 34.56 
L 388.8 34.56 
" style="fill:none;stroke:#000000;stroke-linecap:square;stroke-linejoin:miter;stroke-width:0.7;"/>
   </g>
   <g id="legend_1">
    <g id="patch_7">
     <path d="M 234.865211 94.333787 
L 380.4 94.333787 
Q 382.8 94.333787 382.8 91.933787 
L 382.8 42.96 
Q 382.8 40.56 380.4 40.56 
L 234.865211 40.56 
Q 232.465211 40.56 232.465211 42.96 
L 232.465211 91.933787 
Q 232.465211 94.333787 234.865211 94.333787 
z
" style="fill:#ffffff;opacity:0.8;stroke:#cccccc;stroke-linejoin:miter;"/>
    </g>
    <g id="line2d_4">
     <path d="M 237.265211 49.56 
L 261.265211 49.56 
" style="fill:none;stroke:#1f77b4;stroke-linecap:square;stroke-width:1.5;"/>
    </g>
    <g id="line2d_5"/>
    <g id="text_3">
     <!-- $J_{train}$ -->
     <g transform="translate(270.865211 53.76)scale(0.12 -0.12)">
      <defs>
       <path d="M 3418 3911 
C 3469 4102 3482 4166 3795 4166 
C 3898 4166 3962 4166 3962 4281 
C 3962 4352 3904 4352 3878 4352 
C 3770 4352 3648 4339 3533 4339 
L 3181 4339 
C 2912 4339 2630 4352 2362 4352 
C 2304 4352 2227 4352 2227 4236 
C 2227 4172 2278 4172 2278 4166 
L 2438 4166 
C 2950 4166 2950 4115 2950 4019 
C 2950 4013 2950 3968 2925 3866 
L 2189 953 
C 2022 304 1594 0 1286 0 
C 1069 0 762 99 685 428 
C 710 422 742 415 768 415 
C 979 415 1146 601 1146 787 
C 1146 889 1082 1024 890 1024 
C 774 1024 506 959 506 543 
C 506 149 838 -128 1299 -128 
C 1882 -128 2509 304 2662 908 
L 3418 3911 
z
" id="CMMI12-4a" transform="scale(0.015625)"/>
       <path d="M 1286 2566 
L 1875 2566 
C 1997 2566 2061 2566 2061 2681 
C 2061 2752 2022 2752 1894 2752 
L 1331 2752 
L 1568 3664 
C 1594 3752 1594 3764 1594 3808 
C 1594 3910 1510 3968 1427 3968 
C 1376 3968 1229 3948 1178 3746 
L 928 2752 
L 326 2752 
C 198 2752 141 2752 141 2630 
C 141 2566 186 2566 307 2566 
L 877 2566 
L 454 881 
C 403 657 384 593 384 510 
C 384 210 595 -64 954 -64 
C 1600 -64 1946 868 1946 913 
C 1946 951 1920 970 1882 970 
C 1869 970 1843 970 1830 944 
C 1824 938 1818 932 1773 830 
C 1638 510 1344 64 973 64 
C 781 64 768 223 768 364 
C 768 370 768 491 787 568 
L 1286 2566 
z
" id="CMMI12-74" transform="scale(0.015625)"/>
       <path d="M 2490 2633 
C 2291 2598 2189 2457 2189 2316 
C 2189 2163 2310 2111 2400 2111 
C 2579 2111 2726 2265 2726 2457 
C 2726 2651 2528 2816 2208 2816 
C 1952 2816 1658 2700 1389 2335 
C 1344 2660 1088 2816 832 2816 
C 582 2816 454 2642 378 2508 
C 269 2278 173 1892 173 1860 
C 173 1834 198 1801 243 1801 
C 294 1801 301 1808 339 1957 
C 435 2342 557 2687 813 2687 
C 966 2687 1011 2604 1011 2419 
C 1011 2278 947 2028 902 1827 
L 723 1130 
C 698 1007 627 716 595 600 
C 550 432 480 128 480 96 
C 480 6 550 -64 646 -64 
C 717 -64 838 -20 877 109 
C 896 160 1133 1136 1171 1285 
C 1203 1427 1242 1562 1274 1705 
C 1299 1795 1325 1898 1344 1982 
C 1363 2040 1536 2355 1696 2495 
C 1773 2566 1939 2687 2202 2687 
C 2304 2687 2406 2674 2490 2633 
z
" id="CMMI12-72" transform="scale(0.015625)"/>
       <path d="M 1926 759 
C 1894 651 1894 638 1805 517 
C 1664 338 1382 64 1082 64 
C 819 64 672 300 672 676 
C 672 1028 870 1743 992 2011 
C 1210 2458 1510 2687 1760 2687 
C 2182 2687 2266 2164 2266 2113 
C 2266 2107 2246 2024 2240 2011 
L 1926 759 
z
M 2336 2394 
C 2266 2560 2093 2816 1760 2816 
C 1037 2816 256 1883 256 938 
C 256 306 627 -64 1062 -64 
C 1414 -64 1715 210 1894 421 
C 1958 44 2259 -64 2451 -64 
C 2643 -64 2797 51 2912 280 
C 3014 496 3104 885 3104 910 
C 3104 942 3078 968 3040 968 
C 2982 968 2976 936 2950 840 
C 2854 465 2733 64 2470 64 
C 2285 64 2272 229 2272 356 
C 2272 503 2291 573 2349 821 
C 2394 980 2426 1120 2477 1305 
C 2714 2260 2771 2489 2771 2528 
C 2771 2617 2701 2688 2605 2688 
C 2400 2688 2349 2464 2336 2388 
L 2336 2394 
z
" id="CMMI12-61" transform="scale(0.015625)"/>
       <path d="M 1811 913 
C 1811 945 1786 970 1747 970 
C 1690 970 1683 951 1651 842 
C 1485 261 1222 64 1011 64 
C 934 64 845 83 845 274 
C 845 447 922 638 992 830 
L 1440 2017 
C 1459 2068 1504 2183 1504 2305 
C 1504 2573 1312 2816 998 2816 
C 410 2816 173 1890 173 1838 
C 173 1813 198 1781 243 1781 
C 301 1781 307 1807 333 1896 
C 486 2432 730 2687 979 2687 
C 1037 2687 1146 2681 1146 2477 
C 1146 2311 1062 2100 1011 1960 
L 563 772 
C 525 670 486 568 486 453 
C 486 166 685 -64 992 -64 
C 1581 -64 1811 868 1811 913 
z
M 1760 4012 
C 1760 4108 1683 4224 1542 4224 
C 1395 4224 1229 4083 1229 3916 
C 1229 3756 1363 3705 1440 3705 
C 1613 3705 1760 3871 1760 4012 
z
" id="CMMI12-69" transform="scale(0.015625)"/>
       <path d="M 1318 1870 
C 1331 1909 1491 2228 1728 2432 
C 1894 2585 2112 2687 2362 2687 
C 2618 2687 2707 2496 2707 2241 
C 2707 1877 2445 1149 2317 804 
C 2259 651 2227 568 2227 453 
C 2227 166 2426 -64 2733 -64 
C 3328 -64 3552 874 3552 913 
C 3552 945 3526 970 3488 970 
C 3430 970 3424 951 3392 842 
C 3245 319 3002 64 2752 64 
C 2688 64 2586 70 2586 274 
C 2586 434 2656 625 2694 715 
C 2822 1066 3091 1781 3091 2145 
C 3091 2528 2867 2816 2381 2816 
C 1811 2816 1510 2413 1395 2253 
C 1376 2617 1114 2816 832 2816 
C 627 2816 486 2694 378 2477 
C 262 2247 173 1864 173 1838 
C 173 1813 198 1781 243 1781 
C 294 1781 301 1787 339 1934 
C 442 2324 557 2687 813 2687 
C 960 2687 1011 2585 1011 2394 
C 1011 2253 947 2004 902 1807 
L 723 1117 
C 698 996 627 708 595 593 
C 550 427 480 127 480 95 
C 480 6 550 -64 646 -64 
C 723 -64 813 -26 864 70 
C 877 102 934 325 966 453 
L 1107 1028 
L 1318 1870 
z
" id="CMMI12-6e" transform="scale(0.015625)"/>
      </defs>
      <use transform="scale(0.996264)" xlink:href="#CMMI12-4a"/>
      <use transform="translate(53.917955 -14.943915)scale(0.697382)" xlink:href="#CMMI12-74"/>
      <use transform="translate(78.576265 -14.943915)scale(0.697382)" xlink:href="#CMMI12-72"/>
      <use transform="translate(111.245534 -14.943915)scale(0.697382)" xlink:href="#CMMI12-61"/>
      <use transform="translate(147.090881 -14.943915)scale(0.697382)" xlink:href="#CMMI12-69"/>
      <use transform="translate(170.385788 -14.943915)scale(0.697382)" xlink:href="#CMMI12-6e"/>
     </g>
    </g>
    <g id="line2d_6">
     <path d="M 237.265211 66.284596 
L 261.265211 66.284596 
" style="fill:none;stroke:#ff7f0e;stroke-dasharray:5.55,2.4;stroke-dashoffset:0;stroke-width:1.5;"/>
    </g>
    <g id="line2d_7"/>
    <g id="text_4">
     <!-- $J_{cv}$ -->
     <g transform="translate(270.865211 70.484596)scale(0.12 -0.12)">
      <defs>
       <path d="M 2502 2432 
C 2381 2432 2323 2432 2234 2355 
C 2195 2323 2125 2227 2125 2124 
C 2125 1996 2221 1919 2342 1919 
C 2496 1919 2669 2047 2669 2303 
C 2669 2591 2374 2816 1933 2816 
C 1094 2816 256 1932 256 1011 
C 256 446 602 -64 1254 -64 
C 2125 -64 2675 622 2675 706 
C 2675 745 2637 777 2611 777 
C 2592 777 2586 771 2528 712 
C 2118 161 1510 64 1267 64 
C 826 64 685 453 685 777 
C 685 1004 794 1634 1024 2073 
C 1190 2374 1536 2687 1939 2687 
C 2022 2687 2374 2676 2502 2432 
z
" id="CMMI12-63" transform="scale(0.015625)"/>
       <path d="M 2925 2388 
C 2925 2790 2720 2816 2669 2816 
C 2515 2816 2374 2662 2374 2534 
C 2374 2458 2419 2413 2445 2388 
C 2509 2330 2675 2158 2675 1826 
C 2675 1558 2291 64 1523 64 
C 1133 64 1056 389 1056 625 
C 1056 945 1203 1392 1376 1851 
C 1478 2113 1504 2177 1504 2305 
C 1504 2573 1312 2816 998 2816 
C 410 2816 173 1890 173 1838 
C 173 1813 198 1781 243 1781 
C 301 1781 307 1807 333 1896 
C 486 2445 736 2687 979 2687 
C 1037 2687 1146 2687 1146 2477 
C 1146 2311 1075 2126 979 1883 
C 672 1066 672 868 672 715 
C 672 574 691 313 890 134 
C 1120 -64 1440 -64 1498 -64 
C 2560 -64 2925 2024 2925 2388 
z
" id="CMMI12-76" transform="scale(0.015625)"/>
      </defs>
      <use transform="scale(0.996264)" xlink:href="#CMMI12-4a"/>
      <use transform="translate(53.917955 -14.943915)scale(0.697382)" xlink:href="#CMMI12-63"/>
      <use transform="translate(83.306087 -14.943915)scale(0.697382)" xlink:href="#CMMI12-76"/>
     </g>
    </g>
    <g id="line2d_8">
     <path d="M 237.265211 83.009192 
L 261.265211 83.009192 
" style="fill:none;stroke:#2ca02c;stroke-dasharray:9.6,2.4,1.5,2.4;stroke-dashoffset:0;stroke-width:1.5;"/>
    </g>
    <g id="line2d_9"/>
    <g id="text_5">
     <!-- $desired performance$ -->
     <g transform="translate(270.865211 87.209192)scale(0.12 -0.12)">
      <defs>
       <path d="M 3219 4255 
C 3226 4281 3238 4319 3238 4351 
C 3238 4416 3174 4416 3162 4416 
C 3155 4416 2842 4390 2810 4383 
C 2701 4377 2605 4364 2490 4358 
C 2330 4345 2285 4339 2285 4223 
C 2285 4159 2336 4159 2426 4159 
C 2739 4159 2746 4103 2746 4040 
C 2746 4002 2733 3951 2726 3932 
L 2336 2394 
C 2266 2560 2093 2816 1760 2816 
C 1037 2816 256 1883 256 938 
C 256 306 627 -64 1062 -64 
C 1414 -64 1715 210 1894 421 
C 1958 44 2259 -64 2451 -64 
C 2643 -64 2797 51 2912 281 
C 3014 498 3104 887 3104 913 
C 3104 945 3078 970 3040 970 
C 2982 970 2976 938 2950 842 
C 2854 466 2733 64 2470 64 
C 2285 64 2272 230 2272 357 
C 2272 383 2272 517 2317 696 
L 3219 4255 
z
M 1926 759 
C 1894 651 1894 638 1805 517 
C 1664 338 1382 64 1082 64 
C 819 64 672 300 672 676 
C 672 1028 870 1743 992 2011 
C 1210 2458 1510 2687 1760 2687 
C 2182 2687 2266 2164 2266 2113 
C 2266 2107 2246 2024 2240 2011 
L 1926 759 
z
" id="CMMI12-64" transform="scale(0.015625)"/>
       <path d="M 1146 1472 
C 1318 1472 1754 1484 2061 1600 
C 2547 1786 2592 2160 2592 2275 
C 2592 2559 2349 2816 1926 2816 
C 1254 2816 288 2205 288 1066 
C 288 400 672 -64 1254 -64 
C 2125 -64 2675 609 2675 691 
C 2675 729 2637 761 2611 761 
C 2592 761 2586 755 2528 698 
C 2118 159 1510 64 1267 64 
C 902 64 710 349 710 818 
C 710 907 710 1066 806 1472 
L 1146 1472 
z
M 838 1600 
C 1114 2591 1722 2687 1926 2687 
C 2208 2687 2400 2520 2400 2275 
C 2400 1600 1376 1600 1107 1600 
L 838 1600 
z
" id="CMMI12-65" transform="scale(0.015625)"/>
       <path d="M 1459 1290 
C 1568 1271 1741 1233 1779 1227 
C 1862 1201 2150 1099 2150 793 
C 2150 595 1971 64 1229 64 
C 1094 64 614 83 486 447 
C 742 414 870 614 870 755 
C 870 889 781 960 653 960 
C 512 960 326 851 326 563 
C 326 176 710 -64 1222 -64 
C 2195 -64 2483 665 2483 998 
C 2483 1093 2483 1271 2278 1475 
C 2118 1627 1965 1659 1619 1729 
C 1446 1767 1171 1824 1171 2111 
C 1171 2239 1286 2687 1894 2687 
C 2163 2687 2426 2589 2490 2368 
C 2208 2368 2195 2124 2195 2118 
C 2195 1983 2317 1945 2374 1945 
C 2464 1945 2643 2015 2643 2284 
C 2643 2546 2400 2816 1901 2816 
C 1062 2816 838 2169 838 1907 
C 838 1424 1312 1322 1459 1290 
z
" id="CMMI12-73" transform="scale(0.015625)"/>
       <path d="M 275 -794 
C 230 -981 205 -1031 -58 -1031 
C -135 -1031 -199 -1031 -199 -1152 
C -199 -1165 -192 -1216 -122 -1216 
C -39 -1216 51 -1204 134 -1204 
L 410 -1204 
C 544 -1204 870 -1216 1005 -1216 
C 1043 -1216 1120 -1216 1120 -1101 
C 1120 -1031 1075 -1031 966 -1031 
C 672 -1031 653 -987 653 -937 
C 653 -863 941 217 979 364 
C 1050 185 1222 -64 1555 -64 
C 2278 -64 3059 874 3059 1813 
C 3059 2400 2726 2816 2246 2816 
C 1837 2816 1491 2419 1421 2330 
C 1370 2649 1120 2816 864 2816 
C 678 2816 531 2726 410 2483 
C 294 2253 205 1864 205 1838 
C 205 1813 230 1781 275 1781 
C 326 1781 333 1787 371 1934 
C 467 2311 589 2687 845 2687 
C 992 2687 1043 2585 1043 2394 
C 1043 2241 1024 2177 998 2062 
L 275 -794 
z
M 1382 1992 
C 1427 2170 1606 2356 1709 2445 
C 1779 2509 1990 2687 2234 2687 
C 2515 2687 2643 2407 2643 2075 
C 2643 1768 2464 1047 2304 715 
C 2144 370 1850 64 1555 64 
C 1120 64 1050 613 1050 638 
C 1050 657 1062 708 1069 740 
L 1382 1992 
z
" id="CMMI12-70" transform="scale(0.015625)"/>
       <path d="M 2854 2566 
C 2982 2566 3034 2566 3034 2687 
C 3034 2752 2982 2752 2867 2752 
L 2349 2752 
C 2470 3398 2560 3846 2611 4051 
C 2650 4204 2784 4351 2950 4351 
C 3085 4351 3219 4294 3283 4236 
C 3034 4211 2957 4025 2957 3916 
C 2957 3788 3053 3712 3174 3712 
C 3302 3712 3494 3820 3494 4064 
C 3494 4332 3226 4480 2944 4480 
C 2669 4480 2400 4275 2272 4025 
C 2157 3801 2093 3573 1946 2752 
L 1517 2752 
C 1395 2752 1331 2752 1331 2636 
C 1331 2566 1370 2566 1498 2566 
L 1907 2566 
C 1792 1977 1530 545 1382 -132 
C 1274 -685 1178 -1152 858 -1152 
C 838 -1152 653 -1152 538 -1031 
C 864 -1005 864 -724 864 -717 
C 864 -589 768 -512 646 -512 
C 518 -512 326 -621 326 -865 
C 326 -1140 608 -1280 858 -1280 
C 1510 -1280 1779 -113 1850 203 
C 1965 691 2278 2376 2310 2566 
L 2854 2566 
z
" id="CMMI12-66" transform="scale(0.015625)"/>
       <path d="M 2918 1755 
C 2918 2362 2522 2816 1939 2816 
C 1094 2816 262 1896 262 996 
C 262 389 659 -64 1242 -64 
C 2093 -64 2918 855 2918 1755 
z
M 1248 64 
C 928 64 691 319 691 766 
C 691 1060 845 1711 1024 2030 
C 1312 2522 1670 2687 1933 2687 
C 2246 2687 2490 2432 2490 1985 
C 2490 1730 2355 1047 2112 657 
C 1850 230 1498 64 1248 64 
z
" id="CMMI12-6f" transform="scale(0.015625)"/>
       <path d="M 1318 1870 
C 1331 1909 1491 2228 1728 2432 
C 1894 2585 2112 2687 2362 2687 
C 2618 2687 2707 2496 2707 2241 
C 2707 2202 2707 2075 2630 1775 
L 2470 1117 
C 2419 925 2298 453 2285 383 
C 2259 287 2221 121 2221 95 
C 2221 6 2291 -64 2387 -64 
C 2579 -64 2611 83 2669 313 
L 3053 1838 
C 3066 1890 3398 2687 4102 2687 
C 4358 2687 4448 2496 4448 2241 
C 4448 1883 4198 1187 4058 804 
C 4000 651 3968 568 3968 453 
C 3968 166 4166 -64 4474 -64 
C 5069 -64 5293 874 5293 913 
C 5293 945 5267 970 5229 970 
C 5171 970 5165 951 5133 842 
C 4986 332 4749 64 4493 64 
C 4429 64 4326 70 4326 274 
C 4326 440 4403 645 4429 715 
C 4544 1021 4832 1775 4832 2145 
C 4832 2528 4608 2816 4122 2816 
C 3693 2816 3347 2573 3091 2196 
C 3072 2541 2861 2816 2381 2816 
C 1811 2816 1510 2413 1395 2253 
C 1376 2617 1114 2816 832 2816 
C 646 2816 499 2726 378 2483 
C 262 2253 173 1864 173 1838 
C 173 1813 198 1781 243 1781 
C 294 1781 301 1787 339 1934 
C 435 2311 557 2687 813 2687 
C 960 2687 1011 2585 1011 2394 
C 1011 2253 947 2004 902 1807 
L 723 1117 
C 698 996 627 708 595 593 
C 550 427 480 127 480 95 
C 480 6 550 -64 646 -64 
C 723 -64 813 -26 864 70 
C 877 102 934 325 966 453 
L 1107 1028 
L 1318 1870 
z
" id="CMMI12-6d" transform="scale(0.015625)"/>
      </defs>
      <use transform="scale(0.996264)" xlink:href="#CMMI12-64"/>
      <use transform="translate(50.689097 0)scale(0.996264)" xlink:href="#CMMI12-65"/>
      <use transform="translate(95.901098 0)scale(0.996264)" xlink:href="#CMMI12-73"/>
      <use transform="translate(141.851145 0)scale(0.996264)" xlink:href="#CMMI12-69"/>
      <use transform="translate(175.129747 0)scale(0.996264)" xlink:href="#CMMI12-72"/>
      <use transform="translate(221.800359 0)scale(0.996264)" xlink:href="#CMMI12-65"/>
      <use transform="translate(267.01236 0)scale(0.996264)" xlink:href="#CMMI12-64"/>
      <use transform="translate(317.701457 0)scale(0.996264)" xlink:href="#CMMI12-70"/>
      <use transform="translate(366.660971 0)scale(0.996264)" xlink:href="#CMMI12-65"/>
      <use transform="translate(411.872972 0)scale(0.996264)" xlink:href="#CMMI12-72"/>
      <use transform="translate(458.543584 0)scale(0.996264)" xlink:href="#CMMI12-66"/>
      <use transform="translate(517.263889 0)scale(0.996264)" xlink:href="#CMMI12-6f"/>
      <use transform="translate(564.159199 0)scale(0.996264)" xlink:href="#CMMI12-72"/>
      <use transform="translate(610.829811 0)scale(0.996264)" xlink:href="#CMMI12-6d"/>
      <use transform="translate(696.157035 0)scale(0.996264)" xlink:href="#CMMI12-61"/>
      <use transform="translate(747.364893 0)scale(0.996264)" xlink:href="#CMMI12-6e"/>
      <use transform="translate(805.59494 0)scale(0.996264)" xlink:href="#CMMI12-63"/>
      <use transform="translate(847.578174 0)scale(0.996264)" xlink:href="#CMMI12-65"/>
     </g>
    </g>
   </g>
  </g>
 </g>
 <defs>
  <clipPath id="p39097fc438">
   <rect height="217.44" width="334.8" x="54" y="34.56"/>
  </clipPath>
 </defs>
</svg>
